<?xml version="1.0" encoding="utf-8"?>
<!-- Generator: Adobe Illustrator 27.1.0, SVG Export Plug-In . SVG Version: 6.00 Build 0)  -->
<svg version="1.1" id="Layer_1" xmlns="http://www.w3.org/2000/svg" xmlns:xlink="http://www.w3.org/1999/xlink" x="0px" y="0px"
	 viewBox="0 0 1800 800" style="enable-background:new 0 0 1800 800;" xml:space="preserve">
<style type="text/css">
	.st0{fill:#FFFFFF;stroke:#F5E6E0;stroke-width:2;}
	.st1{fill:#F5F0FC;}
	.st2{fill:#F5E6E0;filter:url(#Adobe_OpacityMaskFilter);}
	.st3{mask:url(#mask0_239_5921_00000155836475133970416100000001707297032599341713_);}
	.st4{opacity:0.4;}
	.st5{fill:#FFFFFF;}
	.st6{fill:none;stroke:#FFFFFF;stroke-width:5;stroke-miterlimit:10;}
	.st7{fill:none;stroke:#FFFFFF;stroke-width:3;stroke-miterlimit:10;}
	.st8{opacity:0.8;fill:none;stroke:#FFFFFF;stroke-width:4;enable-background:new    ;}
</style>
<rect x="1" y="1" class="st0" width="1798" height="798"/>
<rect x="10" y="10" class="st1" width="1780" height="780"/>
<defs>
	<filter id="Adobe_OpacityMaskFilter" filterUnits="userSpaceOnUse" x="-30" y="-120" width="1920" height="960">
		<feColorMatrix  type="matrix" values="1 0 0 0 0  0 1 0 0 0  0 0 1 0 0  0 0 0 1 0"/>
	</filter>
</defs>
<mask maskUnits="userSpaceOnUse" x="-30" y="-120" width="1920" height="960" id="mask0_239_5921_00000155836475133970416100000001707297032599341713_">
	<rect x="10" y="10" class="st2" width="1780" height="780"/>
</mask>
<g class="st3">
	<g class="st4">
		<path class="st5" d="M455.1,136.6L322.2,290.2l1.5,1.3l132.9-153.6L455.1,136.6z"/>
		<path class="st5" d="M461,141.7L328.1,295.3l1.5,1.3L462.5,143L461,141.7z"/>
		<path class="st5" d="M466.9,146.8L334,300.3l1.5,1.3l132.9-153.5L466.9,146.8z"/>
		<path class="st5" d="M472.8,151.9L339.9,305.4l1.5,1.3l132.9-153.5L472.8,151.9z"/>
		<path class="st5" d="M478.7,157L345.8,310.5l1.5,1.3l132.9-153.5L478.7,157z"/>
		<path class="st5" d="M484.6,162L351.7,315.6l1.5,1.3l132.9-153.6L484.6,162z"/>
		<path class="st5" d="M490.5,167.1L357.6,320.7l1.5,1.3L492,168.4L490.5,167.1z"/>
		<path class="st5" d="M496.4,172.2l-133,153.5l1.6,1.3l132.9-153.5L496.4,172.2z"/>
		<path class="st5" d="M502.2,177.3L369.3,330.8l1.6,1.3l132.9-153.5L502.2,177.3z"/>
		<path class="st5" d="M508.1,182.3L375.2,335.9l1.5,1.3l132.9-153.5L508.1,182.3z"/>
		<path class="st5" d="M514,187.4L381.1,341l1.5,1.3l132.9-153.6L514,187.4z"/>
		<path class="st5" d="M519.9,192.5L387,346l1.5,1.4l132.9-153.6L519.9,192.5z"/>
		<path class="st5" d="M525.8,197.6L392.9,351.1l1.5,1.3l132.9-153.5L525.8,197.6z"/>
		<path class="st5" d="M531.7,202.7L398.8,356.2l1.5,1.3L533.2,204L531.7,202.7z"/>
		<path class="st5" d="M537.6,207.7L404.7,361.3l1.5,1.3L539.1,209L537.6,207.7z"/>
		<path class="st5" d="M543.5,212.8L410.6,366.4l1.5,1.3L545,214.1L543.5,212.8z"/>
		<path class="st5" d="M549.4,217.9L416.5,371.4l1.5,1.3l132.9-153.5L549.4,217.9z"/>
		<path class="st5" d="M555.2,223L422.3,376.5l1.6,1.3l132.9-153.5L555.2,223z"/>
		<path class="st5" d="M561.1,228.1L428.2,381.6l1.5,1.3l133-153.5L561.1,228.1z"/>
		<path class="st5" d="M567,233.1L434.1,386.7l1.5,1.3l132.9-153.6L567,233.1z"/>
		<path class="st5" d="M572.9,238.2L440,391.8l1.5,1.3l132.9-153.6L572.9,238.2z"/>
		<path class="st5" d="M578.8,243.3L445.9,396.8l1.5,1.3l132.9-153.5L578.8,243.3z"/>
		<path class="st5" d="M584.7,248.4L451.8,401.9l1.5,1.3l132.9-153.5L584.7,248.4z"/>
		<path class="st5" d="M590.6,253.5L457.7,407l1.5,1.3l132.9-153.5L590.6,253.5z"/>
		<path class="st5" d="M596.5,258.5L463.6,412.1l1.5,1.3L598,259.8L596.5,258.5z"/>
		<path class="st5" d="M602.4,263.6L469.5,417.2l1.5,1.3l132.9-153.6L602.4,263.6z"/>
		<path class="st5" d="M1115.9,476L983,629.6l1.5,1.3l132.9-153.6L1115.9,476z"/>
		<path class="st5" d="M1121.8,481.1L988.9,634.7l1.5,1.3l132.9-153.6L1121.8,481.1z"/>
		<path class="st5" d="M1127.7,486.2L994.8,639.7l1.5,1.3l132.9-153.5L1127.7,486.2z"/>
		<path class="st5" d="M1133.6,491.3l-132.9,153.5l1.5,1.3l132.9-153.5L1133.6,491.3z"/>
		<path class="st5" d="M1139.5,496.4l-132.9,153.5l1.5,1.3L1141,497.7L1139.5,496.4z"/>
		<path class="st5" d="M1145.4,501.4L1012.5,655l1.5,1.3l132.9-153.6L1145.4,501.4z"/>
		<path class="st5" d="M1151.3,506.5l-132.9,153.6l1.5,1.3l132.9-153.6L1151.3,506.5z"/>
		<path class="st5" d="M1157.2,511.6l-133,153.5l1.6,1.3l132.9-153.5L1157.2,511.6z"/>
		<path class="st5" d="M1163,516.7l-132.9,153.5l1.6,1.3L1164.6,518L1163,516.7z"/>
		<path class="st5" d="M1168.9,521.7L1036,675.3l1.5,1.3l132.9-153.5L1168.9,521.7z"/>
		<path class="st5" d="M1174.8,526.8l-132.9,153.6l1.5,1.3l132.9-153.6L1174.8,526.8z"/>
		<path class="st5" d="M1180.7,531.9l-132.9,153.5l1.5,1.4l132.9-153.6L1180.7,531.9z"/>
		<path class="st5" d="M1186.6,537l-132.9,153.5l1.5,1.3l132.9-153.5L1186.6,537z"/>
		<path class="st5" d="M1192.5,542.1l-132.9,153.5l1.5,1.3L1194,543.4L1192.5,542.1z"/>
		<path class="st5" d="M1198.4,547.1l-132.9,153.6l1.5,1.3l132.9-153.6L1198.4,547.1z"/>
		<path class="st5" d="M1204.3,552.2l-132.9,153.6l1.5,1.3l132.9-153.6L1204.3,552.2z"/>
		<path class="st5" d="M1210.2,557.3l-132.9,153.5l1.5,1.3l132.9-153.5L1210.2,557.3z"/>
		<path class="st5" d="M1216,562.4l-132.9,153.5l1.6,1.3l132.9-153.5L1216,562.4z"/>
		<path class="st5" d="M1221.9,567.5L1089,721l1.5,1.3l133-153.5L1221.9,567.5z"/>
		<path class="st5" d="M1227.8,572.5l-132.9,153.6l1.5,1.3l132.9-153.6L1227.8,572.5z"/>
		<path class="st5" d="M1233.7,577.6l-132.9,153.6l1.5,1.3l132.9-153.6L1233.7,577.6z"/>
		<path class="st5" d="M1239.6,582.7l-132.9,153.5l1.5,1.3L1241.1,584L1239.6,582.7z"/>
		<path class="st5" d="M1245.5,587.8l-132.9,153.5l1.5,1.3L1247,589.1L1245.5,587.8z"/>
		<path class="st5" d="M1251.4,592.9l-132.9,153.5l1.5,1.3l132.9-153.5L1251.4,592.9z"/>
		<path class="st5" d="M1257.3,597.9l-132.9,153.6l1.5,1.3l132.9-153.6L1257.3,597.9z"/>
		<path class="st5" d="M1263.2,603l-132.9,153.6l1.5,1.3l132.9-153.6L1263.2,603z"/>
		<path class="st5" d="M1696.8,149.3l-132.9,153.6l1.5,1.3l133-153.6L1696.8,149.3z"/>
		<path class="st5" d="M1702.7,154.4L1569.8,308l1.5,1.3l132.9-153.6L1702.7,154.4z"/>
		<path class="st5" d="M1708.6,159.5L1575.7,313l1.5,1.3l132.9-153.5L1708.6,159.5z"/>
		<path class="st5" d="M1714.5,164.6l-132.9,153.5l1.5,1.3L1716,165.9L1714.5,164.6z"/>
		<path class="st5" d="M1720.4,169.6l-132.9,153.6l1.5,1.3L1721.9,171L1720.4,169.6z"/>
		<path class="st5" d="M1726.3,174.7l-132.9,153.6l1.5,1.3L1727.8,176L1726.3,174.7z"/>
		<path class="st5" d="M1732.2,179.8l-132.9,153.6l1.5,1.3l132.9-153.6L1732.2,179.8z"/>
		<path class="st5" d="M1738.1,184.9l-132.9,153.5l1.5,1.3l132.9-153.5L1738.1,184.9z"/>
		<path class="st5" d="M1744,190l-133,153.5l1.6,1.3l132.9-153.5L1744,190z"/>
		<path class="st5" d="M1749.8,195l-132.9,153.6l1.5,1.3l133-153.5L1749.8,195z"/>
		<path class="st5" d="M1755.7,200.1l-132.9,153.6l1.5,1.3l132.9-153.6L1755.7,200.1z"/>
		<path class="st5" d="M1761.6,205.2l-132.9,153.5l1.5,1.4l132.9-153.6L1761.6,205.2z"/>
		<path class="st5" d="M1767.5,210.3l-132.9,153.5l1.5,1.3L1769,211.6L1767.5,210.3z"/>
		<path class="st5" d="M1773.4,215.4l-132.9,153.5l1.5,1.3l132.9-153.5L1773.4,215.4z"/>
		<path class="st5" d="M1779.3,220.4L1646.4,374l1.5,1.3l132.9-153.6L1779.3,220.4z"/>
		<path class="st5" d="M1785.2,225.5l-132.9,153.6l1.5,1.3l132.9-153.6L1785.2,225.5z"/>
		<path class="st5" d="M1791.1,230.6l-132.9,153.5l1.5,1.3l132.9-153.5L1791.1,230.6z"/>
		<path class="st5" d="M1797,235.7l-133,153.5l1.6,1.3L1798.5,237L1797,235.7z"/>
		<path class="st5" d="M1802.8,240.8l-132.9,153.5l1.6,1.3l132.9-153.5L1802.8,240.8z"/>
		<path class="st5" d="M1808.7,245.8l-132.9,153.6l1.5,1.3l132.9-153.6L1808.7,245.8z"/>
		<path class="st5" d="M1814.6,250.9l-132.9,153.6l1.5,1.3l132.9-153.6L1814.6,250.9z"/>
		<path class="st5" d="M1820.5,256l-132.9,153.5l1.5,1.3L1822,257.3L1820.5,256z"/>
		<path class="st5" d="M1826.4,261.1l-132.9,153.5l1.5,1.3l132.9-153.5L1826.4,261.1z"/>
		<path class="st5" d="M1832.3,266.2l-132.9,153.5l1.5,1.3l132.9-153.5L1832.3,266.2z"/>
		<path class="st5" d="M1838.2,271.2l-132.9,153.6l1.5,1.3l132.9-153.6L1838.2,271.2z"/>
		<path class="st5" d="M1844.1,276.3l-132.9,153.6l1.5,1.3l132.9-153.6L1844.1,276.3z"/>
		<path class="st5" d="M14,552.9l-1.5-1.4L-30,593.9v2.8L14,552.9z"/>
		<path class="st5" d="M19.5,558.4L18,557l-48,47.9v2.8L19.5,558.4z"/>
		<path class="st5" d="M25,563.9l-1.5-1.4L-30,615.9v2.8L25,563.9z"/>
		<path class="st5" d="M30.5,569.4L29,568l-59,58.9v2.8L30.5,569.4z"/>
		<path class="st5" d="M36,574.9l-1.5-1.4L-30,637.8v2.9L36,574.9z"/>
		<path class="st5" d="M41.5,580.4L40,579l-70,69.8v2.8L41.5,580.4z"/>
		<path class="st5" d="M47,585.9l-1.5-1.4L-30,659.8v2.8L47,585.9z"/>
		<path class="st5" d="M52.5,591.4L51,590l-81,80.8v2.8L52.5,591.4z"/>
		<path class="st5" d="M58,596.9l-1.5-1.4L-30,681.7v2.9L58,596.9z"/>
		<path class="st5" d="M63.5,602.4L62,601l-92,91.7v2.8L63.5,602.4z"/>
		<path class="st5" d="M68.9,607.9l-1.4-1.4L-30,703.7v2.8L68.9,607.9z"/>
		<path class="st5" d="M74.4,613.4L73,612L-30,714.7v2.8L74.4,613.4z"/>
		<path class="st5" d="M79.9,618.9l-1.4-1.4L-30,725.7v2.8L79.9,618.9z"/>
		<path class="st5" d="M85.4,624.4L84,623L-30,736.6v2.9L85.4,624.4z"/>
		<path class="st5" d="M90.9,629.9l-1.4-1.4L-30,747.6v2.8L90.9,629.9z"/>
		<path class="st5" d="M96.4,635.4L95,634L-30,758.6v2.8L96.4,635.4z"/>
		<path class="st5" d="M101.9,640.9l-1.4-1.4L-30,769.6v2.8L101.9,640.9z"/>
		<path class="st5" d="M107.4,646.4L106,645L-30,780.5v2.9L107.4,646.4z"/>
		<path class="st6" d="M629.5,705.7c27.2,0,49.2-22,49.2-49.2s-22-49.2-49.2-49.2s-49.2,22-49.2,49.2S602.3,705.7,629.5,705.7z"/>
		<path class="st6" d="M1042.2,314.3c27.2,0,49.2-22,49.2-49.2s-22-49.2-49.2-49.2c-27.2,0-49.2,22-49.2,49.2
			S1015,314.3,1042.2,314.3z"/>
		<path class="st6" d="M1770.3,762.9c25.1-10.4,37-39.2,26.6-64.3c-10.4-25.1-39.2-37-64.3-26.6c-25.1,10.4-37,39.2-26.6,64.3
			C1716.4,761.4,1745.2,773.3,1770.3,762.9z"/>
		<path class="st6" d="M256.7,494.8c4.9-20.5-7.7-41.1-28.2-46s-41.1,7.7-46.1,28.2c-4.9,20.5,7.7,41.1,28.2,46.1
			C231.1,527.9,251.7,515.3,256.7,494.8z"/>
		<path class="st6" d="M1410.1,301.7c4.8-20.5-7.9-41.1-28.4-46s-41.1,7.9-45.9,28.4c-4.9,20.5,7.9,41.1,28.4,46
			C1384.7,334.9,1405.3,322.2,1410.1,301.7z"/>
		<path class="st7" d="M1047,366l23.4,20l23.4-20l23.4,20l23.3-20l23.4,20l23.4-20l23.4,20l23.4-20l23.4,20l23.4-20l23.4,20l23.4-20
			l23.4,20l23.4-20"/>
		<path class="st7" d="M1047,393l23.4,20l23.4-20l23.4,20l23.3-20l23.4,20l23.4-20l23.4,20l23.4-20l23.4,20l23.4-20l23.4,20l23.4-20
			l23.4,20l23.4-20"/>
		<path class="st5" d="M379.2-120l-337,415.4l1.6,1.2l338-416.6H379.2z"/>
		<path class="st5" d="M293.8,83.6L459-120h-2.6L292.2,82.4L293.8,83.6z"/>
		<path class="st5" d="M1820.6-120h-2.5l-286.3,352.9l1.5,1.3L1820.6-120z"/>
		<path class="st5" d="M1781.8,19.9l1.5,1.3L1890-110.3v-3.2L1781.8,19.9z"/>
		<path class="st5" d="M448.2,604.4L257.1,840h2.5l190.2-234.4L448.2,604.4z"/>
		<path class="st5" d="M334.3,840h2.5l363-447.4l-1.6-1.2L334.3,840z"/>
		<path class="st5" d="M747,448.6h2.5l363-447.4l-1.6-1.2L747,448.6z"/>
		<path class="st5" d="M1516,682l-128.2,158h2.6l127.1-156.7L1516,682z"/>
		<path class="st5" d="M1058.2-23L930,135h2.6l127.1-156.7L1058.2-23z"/>
		<path class="st5" d="M1465,840h2.6l299.9-369.7l-1.5-1.3L1465,840z"/>
	</g>
</g>
<path class="st8" d="M1507.8,156.3v1.4l1.4,0.5l11.6,3.8v25.4l-11.6,3.8l-1.4,0.5v1.4v23.4v2.9l2.7-1l79.7-28.9l1.3-0.5v-1.4V162
	v-1.4l-1.3-0.5l-79.6-29l-2.7-1v2.9V156.3z M1589.4,254.2h2v-2v-22v-2h-2h-46.2c-7.6,0-14.2,1.5-19.7,4.5l0,0l0,0
	c-5.4,3.1-9.6,7.4-12.4,12.8l0,0l0,0c-2.7,5.4-4.1,11.5-4.1,18.3c0,6.7,1.3,12.9,4,18.5l0,0c2.8,5.7,6.9,10.2,12.4,13.5l0,0
	c5.6,3.3,12.2,4.9,19.8,4.9h46.2h2v-2v-22.1v-2h-2h-46.2c-3.9,0-6.7-1-8.6-2.7l0,0c-1.8-1.5-2.8-4-2.8-7.6c0-3.7,1-6.1,2.8-7.6
	c1.8-1.5,4.6-2.5,8.6-2.5H1589.4z M1589.4,379.7h2v-2v-64.4v-2h-2h-17.6h-2v2v19h-60h-2v2v22.1v2h2l60,0v19.2v2h2H1589.4z
	 M1589.4,416.3h2v-2v-22v-2h-2h-46.2c-7.6,0-14.2,1.5-19.7,4.5l0,0l0,0c-5.4,3.1-9.6,7.4-12.4,12.8l0,0l0,0
	c-2.7,5.4-4.1,11.5-4.1,18.3c0,6.7,1.3,12.9,4,18.5l0,0c2.8,5.7,6.9,10.2,12.4,13.5l0,0c5.6,3.3,12.2,4.9,19.8,4.9h46.2h2v-2v-22.1
	v-2h-2h-46.2c-3.9,0-6.7-1-8.6-2.7l0,0c-1.8-1.5-2.8-4-2.8-7.6c0-3.7,1-6.1,2.8-7.6c1.8-1.5,4.6-2.5,8.6-2.5H1589.4z M1589.4,574.8
	h2v-2v-26.7v-1.4l-1.3-0.5l-46.8-17.7l46.9-18.1l1.3-0.5v-1.4v-26.8v-2h-2h-79.6h-2v2V502v2h2h32.2l-32.9,11.2l-1.3,0.5v1.4v18.5
	v1.4l1.3,0.5l32.6,11.1h-31.9h-2v2v22.1v2h2H1589.4z M1507.8,666v2h2h79.6h2v-2v-22.1v-2h-2h-38.4l39.5-25.8l0.9-0.6v-1.1v-22.1v-2
	h-2h-79.6h-2v2v22.1v2h2h37.9l-39,25.8l-0.9,0.6v1.1V666z M1541.7,169l17.4,5.7l-17.4,5.8V169z"/>
</svg>
